# xmcd
#
# Track frame offsets: 
#        150
#        13110
#        22498
#        32978
#        44540
#        55062
#        66769
#        77277
#        88889
#        100621
#        112672
#        121840
#        135071
#        145449
#        154969
#        166736
#        180405
#        191354
#        205007
#        219021
#        229564
#        244132
#        257359
#        268251
#
# Disc length: 3718 seconds
#
# Revision: 0
# Processed by: cddbd v1.5.2PL0 Copyright (c) Steve Scherf et al.
# Submitted via: ExactAudioCopy v1.0b1
#
DISCID=360e8418
DTITLE=J. J. Jackson - But It's Alright
DYEAR=2003
DGENRE=R&B
TTITLE0=But It's Alright
TTITLE1=Boogaloo Baby
TTITLE2=I Dig Girls
TTITLE3=That Ain't Right
TTITLE4='Til Love Goes Out of Style
TTITLE5=It Seems Like I've Been Here Before
TTITLE6=Four Walls
TTITLE7=Here We Go Again
TTITLE8=A Change is Gonna Come
TTITLE9=Give Me Back the Love
TTITLE10=The Stones That I Throw
TTITLE11=You've Got Me Dizzy
TTITLE12=Love is a Hurtin' Thing
TTITLE13=Let It Out
TTITLE14=Ain't Too Proud to Beg
TTITLE15=Sho Nuff (Got a Good Thing Going)
TTITLE16=Try Me
TTITLE17=Down But Not Out
TTITLE18=Why Does It Take So Long
TTITLE19=Come See Me
TTITLE20=I Don't Want to Live My Life Alone
TTITLE21=Too Late
TTITLE22=You Do It Cause You Wanna
TTITLE23=Courage Ain't Strength
EXTD=
EXTT0=
EXTT1=
EXTT2=
EXTT3=
EXTT4=
EXTT5=
EXTT6=
EXTT7=
EXTT8=
EXTT9=
EXTT10=
EXTT11=
EXTT12=
EXTT13=
EXTT14=
EXTT15=
EXTT16=
EXTT17=
EXTT18=
EXTT19=
EXTT20=
EXTT21=
EXTT22=
EXTT23=
PLAYORDER=
